<svg xmlns="http://www.w3.org/2000/svg" width="1920" height="1080"><path d="M863,-260L1336,-230L1449,-241Z" fill="#a8d79d" stroke="#a8d79d" stroke-width="1.51"/><path d="M1033,1327L756,1339L1586,1332Z" fill="#307e49" stroke="#307e49" stroke-width="1.51"/><path d="M1240,1318L1033,1327L1586,1332Z" fill="#207843" stroke="#207843" stroke-width="1.51"/><path d="M2058,212L1908,371L2069,441Z" fill="#5c975c" stroke="#5c975c" stroke-width="1.51"/><path d="M1628,-234L1948,-198L2115,-181Z" fill="#88af80" stroke="#88af80" stroke-width="1.51"/><path d="M2040,-102L2088,112L2115,-181Z" fill="#7fa16e" stroke="#7fa16e" stroke-width="1.51"/><path d="M2085,652L1982,672L2123,791Z" fill="#297e47" stroke="#297e47" stroke-width="1.51"/><path d="M1984,1037L2100,1045L2123,791Z" fill="#126838" stroke="#126838" stroke-width="1.51"/><path d="M1928,813L1984,1037L2123,791Z" fill="#19733e" stroke="#19733e" stroke-width="1.51"/><path d="M1766,1312L1586,1332L2124,1310Z" fill="#025c32" stroke="#025c32" stroke-width="1.51"/><path d="M1898,1281L1766,1312L2124,1310Z" fill="#005830" stroke="#005830" stroke-width="1.51"/><path d="M2100,1045L1946,1116L2128,1191Z" fill="#035f33" stroke="#035f33" stroke-width="1.51"/><path d="M1898,1281L2124,1310L2128,1191Z" fill="#00542f" stroke="#00542f" stroke-width="1.51"/><path d="M2123,791L2100,1045L2128,1191Z" fill="#0d6235" stroke="#0d6235" stroke-width="1.51"/><path d="M2088,112L2058,212L2137,570Z" fill="#5f935c" stroke="#5f935c" stroke-width="1.51"/><path d="M2058,212L2069,441L2137,570Z" fill="#528e57" stroke="#528e57" stroke-width="1.51"/><path d="M2085,652L2123,791L2137,570Z" fill="#2e7d48" stroke="#2e7d48" stroke-width="1.51"/><path d="M2069,441L2085,652L2137,570Z" fill="#3e8650" stroke="#3e8650" stroke-width="1.51"/><path d="M2115,-181L2088,112L2137,570Z" fill="#6d9762" stroke="#6d9762" stroke-width="1.51"/><path d="M2123,791L2128,1191L2137,570Z" fill="#1a6e3d" stroke="#1a6e3d" stroke-width="1.51"/><path d="M2069,441L1982,672L2085,652Z" fill="#3b874f" stroke="#3b874f" stroke-width="1.51"/><path d="M2040,-102L1920,-66L2088,112Z" fill="#7da46e" stroke="#7da46e" stroke-width="1.51"/><path d="M1984,1037L1946,1116L2100,1045Z" fill="#086536" stroke="#086536" stroke-width="1.51"/><path d="M1946,1116L1898,1281L2128,1191Z" fill="#005d33" stroke="#005d33" stroke-width="1.51"/><path d="M1879,583L1982,672L2069,441Z" fill="#3f8d53" stroke="#3f8d53" stroke-width="1.51"/><path d="M1982,672L1928,813L2123,791Z" fill="#227e45" stroke="#227e45" stroke-width="1.51"/><path d="M1948,218L1908,371L2058,212Z" fill="#669d61" stroke="#669d61" stroke-width="1.51"/><path d="M1920,-66L1939,132L2088,112Z" fill="#79a46a" stroke="#79a46a" stroke-width="1.51"/><path d="M1948,-198L2040,-102L2115,-181Z" fill="#83a578" stroke="#83a578" stroke-width="1.51"/><path d="M1939,132L2058,212L2088,112Z" fill="#719e65" stroke="#719e65" stroke-width="1.51"/><path d="M-28,-225L268,-185L863,-260Z" fill="#ebf7bd" stroke="#ebf7bd" stroke-width="1.51"/><path d="M1628,-234L1810,-162L1948,-198Z" fill="#8bb582" stroke="#8bb582" stroke-width="1.51"/><path d="M1939,132L1948,218L2058,212Z" fill="#6ea064" stroke="#6ea064" stroke-width="1.51"/><path d="M1908,371L1879,583L2069,441Z" fill="#4e9458" stroke="#4e9458" stroke-width="1.51"/><path d="M1948,-198L1920,-66L2040,-102Z" fill="#84a976" stroke="#84a976" stroke-width="1.51"/><path d="M1833,831L1783,978L1928,813Z" fill="#1c7e42" stroke="#1c7e42" stroke-width="1.51"/><path d="M1920,-66L1787,109L1939,132Z" fill="#7cab6d" stroke="#7cab6d" stroke-width="1.51"/><path d="M1811,1184L1898,1281L1946,1116Z" fill="#006336" stroke="#006336" stroke-width="1.51"/><path d="M1779,698L1928,813L1982,672Z" fill="#288849" stroke="#288849" stroke-width="1.51"/><path d="M1783,978L1946,1116L1984,1037Z" fill="#0c6d39" stroke="#0c6d39" stroke-width="1.51"/><path d="M1928,813L1783,978L1984,1037Z" fill="#14743c" stroke="#14743c" stroke-width="1.51"/><path d="M1879,583L1779,698L1982,672Z" fill="#358e4f" stroke="#358e4f" stroke-width="1.51"/><path d="M1739,540L1879,583L1908,371Z" fill="#4b9959" stroke="#4b9959" stroke-width="1.51"/><path d="M1779,698L1833,831L1928,813Z" fill="#238648" stroke="#238648" stroke-width="1.51"/><path d="M1787,109L1785,243L1939,132Z" fill="#75aa6a" stroke="#75aa6a" stroke-width="1.51"/><path d="M1783,978L1811,1184L1946,1116Z" fill="#086d39" stroke="#086d39" stroke-width="1.51"/><path d="M1939,132L1785,243L1948,218Z" fill="#6fa567" stroke="#6fa567" stroke-width="1.51"/><path d="M1785,243L1908,371L1948,218Z" fill="#67a263" stroke="#67a263" stroke-width="1.51"/><path d="M1810,-162L1920,-66L1948,-198Z" fill="#87af7a" stroke="#87af7a" stroke-width="1.51"/><path d="M1761,-82L1787,109L1920,-66Z" fill="#83b072" stroke="#83b072" stroke-width="1.51"/><path d="M1747,348L1739,540L1908,371Z" fill="#589f5e" stroke="#589f5e" stroke-width="1.51"/><path d="M1785,243L1747,348L1908,371Z" fill="#64a462" stroke="#64a462" stroke-width="1.51"/><path d="M1810,-162L1761,-82L1920,-66Z" fill="#88b278" stroke="#88b278" stroke-width="1.51"/><path d="M1811,1184L1766,1312L1898,1281Z" fill="#026134" stroke="#026134" stroke-width="1.51"/><path d="M1739,540L1779,698L1879,583Z" fill="#3e9554" stroke="#3e9554" stroke-width="1.51"/><path d="M1683,500L1739,540L1747,348Z" fill="#55a15d" stroke="#55a15d" stroke-width="1.51"/><path d="M1602,1020L1615,1174L1783,978Z" fill="#17783e" stroke="#17783e" stroke-width="1.51"/><path d="M1761,-82L1663,-6L1787,109Z" fill="#85b473" stroke="#85b473" stroke-width="1.51"/><path d="M1783,978L1615,1174L1811,1184Z" fill="#0e703b" stroke="#0e703b" stroke-width="1.51"/><path d="M1616,819L1783,978L1833,831Z" fill="#208244" stroke="#208244" stroke-width="1.51"/><path d="M1779,698L1616,819L1833,831Z" fill="#288b4a" stroke="#288b4a" stroke-width="1.51"/><path d="M1623,132L1785,243L1787,109Z" fill="#79af6c" stroke="#79af6c" stroke-width="1.51"/><path d="M1615,1174L1766,1312L1811,1184Z" fill="#096837" stroke="#096837" stroke-width="1.51"/><path d="M1628,-234L1761,-82L1810,-162Z" fill="#8db780" stroke="#8db780" stroke-width="1.51"/><path d="M1739,540L1612,690L1779,698Z" fill="#3c9753" stroke="#3c9753" stroke-width="1.51"/><path d="M1612,690L1616,819L1779,698Z" fill="#2f934e" stroke="#2f934e" stroke-width="1.51"/><path d="M1616,819L1602,1020L1783,978Z" fill="#1f8042" stroke="#1f8042" stroke-width="1.51"/><path d="M1612,221L1747,348L1785,243Z" fill="#6eab67" stroke="#6eab67" stroke-width="1.51"/><path d="M1623,132L1612,221L1785,243Z" fill="#77b06b" stroke="#77b06b" stroke-width="1.51"/><path d="M1663,-6L1623,132L1787,109Z" fill="#82b471" stroke="#82b471" stroke-width="1.51"/><path d="M1588,377L1683,500L1747,348Z" fill="#5ea661" stroke="#5ea661" stroke-width="1.51"/><path d="M1628,-234L1663,-6L1761,-82Z" fill="#8eb97c" stroke="#8eb97c" stroke-width="1.51"/><path d="M1615,1174L1586,1332L1766,1312Z" fill="#0d6737" stroke="#0d6737" stroke-width="1.51"/><path d="M1683,500L1612,690L1739,540Z" fill="#479c58" stroke="#479c58" stroke-width="1.51"/><path d="M1612,221L1588,377L1747,348Z" fill="#6bad66" stroke="#6bad66" stroke-width="1.51"/><path d="M1512,870L1602,1020L1616,819Z" fill="#268745" stroke="#268745" stroke-width="1.51"/><path d="M1628,-234L1465,-69L1663,-6Z" fill="#92be7e" stroke="#92be7e" stroke-width="1.51"/><path d="M1495,594L1612,690L1683,500Z" fill="#47a059" stroke="#47a059" stroke-width="1.51"/><path d="M1588,377L1495,594L1683,500Z" fill="#56a65f" stroke="#56a65f" stroke-width="1.51"/><path d="M1494,125L1623,132L1663,-6Z" fill="#85b973" stroke="#85b973" stroke-width="1.51"/><path d="M1465,-69L1494,125L1663,-6Z" fill="#8cbd78" stroke="#8cbd78" stroke-width="1.51"/><path d="M1461,1248L1240,1318L1586,1332Z" fill="#19723d" stroke="#19723d" stroke-width="1.51"/><path d="M1432,437L1495,594L1588,377Z" fill="#5dac63" stroke="#5dac63" stroke-width="1.51"/><path d="M1512,870L1491,1018L1602,1020Z" fill="#248443" stroke="#248443" stroke-width="1.51"/><path d="M1539,217L1588,377L1612,221Z" fill="#72b26a" stroke="#72b26a" stroke-width="1.51"/><path d="M1461,1248L1586,1332L1615,1174Z" fill="#146e3a" stroke="#146e3a" stroke-width="1.51"/><path d="M1602,1020L1472,1097L1615,1174Z" fill="#197a3f" stroke="#197a3f" stroke-width="1.51"/><path d="M1612,690L1458,725L1616,819Z" fill="#329750" stroke="#329750" stroke-width="1.51"/><path d="M1539,217L1612,221L1623,132Z" fill="#7bb56e" stroke="#7bb56e" stroke-width="1.51"/><path d="M1449,-241L1465,-69L1628,-234Z" fill="#97c388" stroke="#97c388" stroke-width="1.51"/><path d="M1458,725L1512,870L1616,819Z" fill="#30944d" stroke="#30944d" stroke-width="1.51"/><path d="M1494,125L1539,217L1623,132Z" fill="#81b870" stroke="#81b870" stroke-width="1.51"/><path d="M1491,1018L1472,1097L1602,1020Z" fill="#1f8042" stroke="#1f8042" stroke-width="1.51"/><path d="M1472,1097L1461,1248L1615,1174Z" fill="#17783e" stroke="#17783e" stroke-width="1.51"/><path d="M1495,594L1458,725L1612,690Z" fill="#409f56" stroke="#409f56" stroke-width="1.51"/><path d="M1366,379L1432,437L1539,217Z" fill="#70b76c" stroke="#70b76c" stroke-width="1.51"/><path d="M1539,217L1432,437L1588,377Z" fill="#6db269" stroke="#6db269" stroke-width="1.51"/><path d="M268,-185L761,-223L863,-260Z" fill="#d7efb4" stroke="#d7efb4" stroke-width="1.51"/><path d="M1465,-69L1386,-5L1494,125Z" fill="#91c47c" stroke="#91c47c" stroke-width="1.51"/><path d="M1494,125L1329,220L1539,217Z" fill="#82be73" stroke="#82be73" stroke-width="1.51"/><path d="M1329,220L1366,379L1539,217Z" fill="#7abd71" stroke="#7abd71" stroke-width="1.51"/><path d="M1458,725L1281,817L1512,870Z" fill="#369b52" stroke="#369b52" stroke-width="1.51"/><path d="M1296,998L1491,1018L1512,870Z" fill="#298b48" stroke="#298b48" stroke-width="1.51"/><path d="M1281,817L1296,998L1512,870Z" fill="#32964f" stroke="#32964f" stroke-width="1.51"/><path d="M863,-260L1142,-165L1336,-230Z" fill="#b0dba0" stroke="#b0dba0" stroke-width="1.51"/><path d="M1291,1243L1240,1318L1461,1248Z" fill="#1f7a43" stroke="#1f7a43" stroke-width="1.51"/><path d="M1449,-241L1336,-230L1465,-69Z" fill="#9bc98d" stroke="#9bc98d" stroke-width="1.51"/><path d="M1303,1172L1461,1248L1472,1097Z" fill="#1d7e43" stroke="#1d7e43" stroke-width="1.51"/><path d="M1386,-5L1292,70L1494,125Z" fill="#90c77d" stroke="#90c77d" stroke-width="1.51"/><path d="M1432,437L1305,502L1495,594Z" fill="#5bb066" stroke="#5bb066" stroke-width="1.51"/><path d="M1295,703L1458,725L1495,594Z" fill="#45a55b" stroke="#45a55b" stroke-width="1.51"/><path d="M1305,502L1295,703L1495,594Z" fill="#51ad62" stroke="#51ad62" stroke-width="1.51"/><path d="M1292,70L1329,220L1494,125Z" fill="#8bc579" stroke="#8bc579" stroke-width="1.51"/><path d="M1296,998L1472,1097L1491,1018Z" fill="#258746" stroke="#258746" stroke-width="1.51"/><path d="M-48,1266L-219,1259L326,1344Z" fill="#81a372" stroke="#81a372" stroke-width="1.51"/><path d="M1336,-230L1386,-5L1465,-69Z" fill="#9bca86" stroke="#9bca86" stroke-width="1.51"/><path d="M1296,998L1303,1172L1472,1097Z" fill="#248747" stroke="#248747" stroke-width="1.51"/><path d="M1336,-230L1240,-78L1386,-5Z" fill="#9fd08a" stroke="#9fd08a" stroke-width="1.51"/><path d="M1295,703L1281,817L1458,725Z" fill="#3da559" stroke="#3da559" stroke-width="1.51"/><path d="M1303,1172L1291,1243L1461,1248Z" fill="#1f7d44" stroke="#1f7d44" stroke-width="1.51"/><path d="M1236,587L1295,703L1305,502Z" fill="#56b366" stroke="#56b366" stroke-width="1.51"/><path d="M1366,379L1305,502L1432,437Z" fill="#67b76b" stroke="#67b76b" stroke-width="1.51"/><path d="M1281,817L1217,892L1296,998Z" fill="#369b53" stroke="#369b53" stroke-width="1.51"/><path d="M1240,-78L1292,70L1386,-5Z" fill="#9acf84" stroke="#9acf84" stroke-width="1.51"/><path d="M1292,70L1239,86L1329,220Z" fill="#90cc7e" stroke="#90cc7e" stroke-width="1.51"/><path d="M1329,220L1204,418L1366,379Z" fill="#78c173" stroke="#78c173" stroke-width="1.51"/><path d="M1204,418L1305,502L1366,379Z" fill="#6cbc6f" stroke="#6cbc6f" stroke-width="1.51"/><path d="M863,-260L981,-173L1142,-165Z" fill="#b9e1a4" stroke="#b9e1a4" stroke-width="1.51"/><path d="M1296,998L1233,1178L1303,1172Z" fill="#278b4a" stroke="#278b4a" stroke-width="1.51"/><path d="M1239,86L1161,207L1329,220Z" fill="#8fcd7e" stroke="#8fcd7e" stroke-width="1.51"/><path d="M1161,207L1204,418L1329,220Z" fill="#83c879" stroke="#83c879" stroke-width="1.51"/><path d="M1142,-165L1240,-78L1336,-230Z" fill="#a4d593" stroke="#a4d593" stroke-width="1.51"/><path d="M1236,587L1211,680L1295,703Z" fill="#4fb163" stroke="#4fb163" stroke-width="1.51"/><path d="M1137,1033L1233,1178L1296,998Z" fill="#30904e" stroke="#30904e" stroke-width="1.51"/><path d="M916,1308L756,1339L1033,1327Z" fill="#468853" stroke="#468853" stroke-width="1.51"/><path d="M1240,-78L1239,86L1292,70Z" fill="#9ad185" stroke="#9ad185" stroke-width="1.51"/><path d="M1211,680L1281,817L1295,703Z" fill="#43ac5e" stroke="#43ac5e" stroke-width="1.51"/><path d="M1233,1178L1291,1243L1303,1172Z" fill="#238448" stroke="#238448" stroke-width="1.51"/><path d="M1204,418L1236,587L1305,502Z" fill="#64bb6d" stroke="#64bb6d" stroke-width="1.51"/><path d="M1217,892L1137,1033L1296,998Z" fill="#369851" stroke="#369851" stroke-width="1.51"/><path d="M1233,1178L1240,1318L1291,1243Z" fill="#248146" stroke="#248146" stroke-width="1.51"/><path d="M1065,815L1217,892L1281,817Z" fill="#42a55a" stroke="#42a55a" stroke-width="1.51"/><path d="M1211,680L1065,815L1281,817Z" fill="#47ac5f" stroke="#47ac5f" stroke-width="1.51"/><path d="M1161,207L1015,383L1204,418Z" fill="#85ca7b" stroke="#85ca7b" stroke-width="1.51"/><path d="M1088,990L1137,1033L1217,892Z" fill="#3d9b54" stroke="#3d9b54" stroke-width="1.51"/><path d="M1137,1033L1058,1139L1233,1178Z" fill="#359150" stroke="#359150" stroke-width="1.51"/><path d="M1058,1139L1033,1327L1233,1178Z" fill="#358a4e" stroke="#358a4e" stroke-width="1.51"/><path d="M1084,586L1211,680L1236,587Z" fill="#5cb769" stroke="#5cb769" stroke-width="1.51"/><path d="M1204,418L1084,586L1236,587Z" fill="#67bd6f" stroke="#67bd6f" stroke-width="1.51"/><path d="M1069,42L1161,207L1239,86Z" fill="#9bd385" stroke="#9bd385" stroke-width="1.51"/><path d="M1142,-165L1033,-17L1240,-78Z" fill="#abd991" stroke="#abd991" stroke-width="1.51"/><path d="M1033,-17L1069,42L1240,-78Z" fill="#a8d88e" stroke="#a8d88e" stroke-width="1.51"/><path d="M1069,42L1239,86L1240,-78Z" fill="#a0d489" stroke="#a0d489" stroke-width="1.51"/><path d="M1233,1178L1033,1327L1240,1318Z" fill="#2d8249" stroke="#2d8249" stroke-width="1.51"/><path d="M1022,653L1065,815L1211,680Z" fill="#55b466" stroke="#55b466" stroke-width="1.51"/><path d="M1065,815L1088,990L1217,892Z" fill="#45a25a" stroke="#45a25a" stroke-width="1.51"/><path d="M1015,383L1084,586L1204,418Z" fill="#77c476" stroke="#77c476" stroke-width="1.51"/><path d="M1084,586L1022,653L1211,680Z" fill="#5fb96b" stroke="#5fb96b" stroke-width="1.51"/><path d="M268,-185L461,-157L761,-223Z" fill="#e1f3b4" stroke="#e1f3b4" stroke-width="1.51"/><path d="M1069,42L1000,213L1161,207Z" fill="#9dd587" stroke="#9dd587" stroke-width="1.51"/><path d="M1000,213L1015,383L1161,207Z" fill="#92d082" stroke="#92d082" stroke-width="1.51"/><path d="M1088,990L1058,1139L1137,1033Z" fill="#3e9754" stroke="#3e9754" stroke-width="1.51"/><path d="M981,-173L1033,-17L1142,-165Z" fill="#b3de98" stroke="#b3de98" stroke-width="1.51"/><path d="M916,1308L1033,1327L1058,1139Z" fill="#3e8b51" stroke="#3e8b51" stroke-width="1.51"/><path d="M1022,653L919,743L1065,815Z" fill="#5cb769" stroke="#5cb769" stroke-width="1.51"/><path d="M913,189L1000,213L1069,42Z" fill="#a5d98b" stroke="#a5d98b" stroke-width="1.51"/><path d="M835,567L1022,653L1084,586Z" fill="#6fc173" stroke="#6fc173" stroke-width="1.51"/><path d="M1015,383L835,567L1084,586Z" fill="#7bc779" stroke="#7bc779" stroke-width="1.51"/><path d="M890,1022L1058,1139L1088,990Z" fill="#469b58" stroke="#469b58" stroke-width="1.51"/><path d="M1065,815L914,835L1088,990Z" fill="#4fa95f" stroke="#4fa95f" stroke-width="1.51"/><path d="M914,835L890,1022L1088,990Z" fill="#50a55d" stroke="#50a55d" stroke-width="1.51"/><path d="M1033,-17L864,34L1069,42Z" fill="#afdd92" stroke="#afdd92" stroke-width="1.51"/><path d="M864,34L913,189L1069,42Z" fill="#aedd90" stroke="#aedd90" stroke-width="1.51"/><path d="M844,1109L916,1308L1058,1139Z" fill="#469456" stroke="#469456" stroke-width="1.51"/><path d="M919,743L914,835L1065,815Z" fill="#5ab367" stroke="#5ab367" stroke-width="1.51"/><path d="M890,1022L844,1109L1058,1139Z" fill="#4b9c5a" stroke="#4b9c5a" stroke-width="1.51"/><path d="M913,189L834,351L1000,213Z" fill="#a0d789" stroke="#a0d789" stroke-width="1.51"/><path d="M1000,213L834,351L1015,383Z" fill="#96d385" stroke="#96d385" stroke-width="1.51"/><path d="M834,351L835,567L1015,383Z" fill="#8ccf81" stroke="#8ccf81" stroke-width="1.51"/><path d="M981,-173L843,-47L1033,-17Z" fill="#b9e299" stroke="#b9e299" stroke-width="1.51"/><path d="M843,-47L864,34L1033,-17Z" fill="#b8e197" stroke="#b8e197" stroke-width="1.51"/><path d="M835,567L919,743L1022,653Z" fill="#6dc072" stroke="#6dc072" stroke-width="1.51"/><path d="M461,-157L588,-160L761,-223Z" fill="#d8efb0" stroke="#d8efb0" stroke-width="1.51"/><path d="M863,-260L843,-47L981,-173Z" fill="#c0e4a3" stroke="#c0e4a3" stroke-width="1.51"/><path d="M-28,-225L96,-193L268,-185Z" fill="#f7fcc4" stroke="#f7fcc4" stroke-width="1.51"/><path d="M834,351L783,565L835,567Z" fill="#8bce80" stroke="#8bce80" stroke-width="1.51"/><path d="M729,1122L756,1339L844,1109Z" fill="#569a5c" stroke="#569a5c" stroke-width="1.51"/><path d="M761,-223L843,-47L863,-260Z" fill="#c7e7a8" stroke="#c7e7a8" stroke-width="1.51"/><path d="M696,210L834,351L913,189Z" fill="#a9db8c" stroke="#a9db8c" stroke-width="1.51"/><path d="M864,34L772,43L913,189Z" fill="#b6e094" stroke="#b6e094" stroke-width="1.51"/><path d="M712,974L890,1022L914,835Z" fill="#5daa62" stroke="#5daa62" stroke-width="1.51"/><path d="M700,870L712,974L914,835Z" fill="#66b167" stroke="#66b167" stroke-width="1.51"/><path d="M844,1109L756,1339L916,1308Z" fill="#4e9157" stroke="#4e9157" stroke-width="1.51"/><path d="M835,567L728,642L919,743Z" fill="#77c476" stroke="#77c476" stroke-width="1.51"/><path d="M700,870L914,835L919,743Z" fill="#65b66a" stroke="#65b66a" stroke-width="1.51"/><path d="M728,642L700,870L919,743Z" fill="#6fbf70" stroke="#6fbf70" stroke-width="1.51"/><path d="M772,43L696,210L913,189Z" fill="#b6e193" stroke="#b6e193" stroke-width="1.51"/><path d="M696,210L724,336L834,351Z" fill="#a9db8d" stroke="#a9db8d" stroke-width="1.51"/><path d="M712,974L844,1109L890,1022Z" fill="#5aa45f" stroke="#5aa45f" stroke-width="1.51"/><path d="M724,336L783,565L834,351Z" fill="#98d486" stroke="#98d486" stroke-width="1.51"/><path d="M783,565L728,642L835,567Z" fill="#82ca7b" stroke="#82ca7b" stroke-width="1.51"/><path d="M761,-223L681,-54L843,-47Z" fill="#cae9a3" stroke="#cae9a3" stroke-width="1.51"/><path d="M712,974L729,1122L844,1109Z" fill="#5da360" stroke="#5da360" stroke-width="1.51"/><path d="M843,-47L772,43L864,34Z" fill="#bee499" stroke="#bee499" stroke-width="1.51"/><path d="M724,336L617,422L783,565Z" fill="#9cd587" stroke="#9cd587" stroke-width="1.51"/><path d="M681,-54L772,43L843,-47Z" fill="#c5e79d" stroke="#c5e79d" stroke-width="1.51"/><path d="M616,837L700,870L728,642Z" fill="#76bf72" stroke="#76bf72" stroke-width="1.51"/><path d="M572,1252L395,1344L756,1339Z" fill="#62955e" stroke="#62955e" stroke-width="1.51"/><path d="M729,1122L572,1252L756,1339Z" fill="#5c985d" stroke="#5c985d" stroke-width="1.51"/><path d="M588,-160L681,-54L761,-223Z" fill="#d2edaa" stroke="#d2edaa" stroke-width="1.51"/><path d="M589,573L728,642L783,565Z" fill="#89cd7e" stroke="#89cd7e" stroke-width="1.51"/><path d="M617,422L589,573L783,565Z" fill="#95d384" stroke="#95d384" stroke-width="1.51"/><path d="M613,1122L572,1252L729,1122Z" fill="#63a162" stroke="#63a162" stroke-width="1.51"/><path d="M542,54L696,210L772,43Z" fill="#c4e799" stroke="#c4e799" stroke-width="1.51"/><path d="M681,-54L542,54L772,43Z" fill="#cbea9e" stroke="#cbea9e" stroke-width="1.51"/><path d="M563,634L616,837L728,642Z" fill="#82c879" stroke="#82c879" stroke-width="1.51"/><path d="M712,974L613,1122L729,1122Z" fill="#64a663" stroke="#64a663" stroke-width="1.51"/><path d="M696,210L534,262L724,336Z" fill="#b5e192" stroke="#b5e192" stroke-width="1.51"/><path d="M589,573L563,634L728,642Z" fill="#8dce7f" stroke="#8dce7f" stroke-width="1.51"/><path d="M128,1277L-48,1266L326,1344Z" fill="#7da16d" stroke="#7da16d" stroke-width="1.51"/><path d="M700,870L558,950L712,974Z" fill="#6eb269" stroke="#6eb269" stroke-width="1.51"/><path d="M558,950L613,1122L712,974Z" fill="#6bac66" stroke="#6bac66" stroke-width="1.51"/><path d="M534,262L617,422L724,336Z" fill="#afde8e" stroke="#afde8e" stroke-width="1.51"/><path d="M616,837L558,950L700,870Z" fill="#74b76d" stroke="#74b76d" stroke-width="1.51"/><path d="M542,54L534,262L696,210Z" fill="#c3e798" stroke="#c3e798" stroke-width="1.51"/><path d="M529,-42L542,54L681,-54Z" fill="#d3eda2" stroke="#d3eda2" stroke-width="1.51"/><path d="M588,-160L529,-42L681,-54Z" fill="#d7efa6" stroke="#d7efa6" stroke-width="1.51"/><path d="M478,55L534,262L542,54Z" fill="#ceeb9d" stroke="#ceeb9d" stroke-width="1.51"/><path d="M436,1098L572,1252L613,1122Z" fill="#6aa564" stroke="#6aa564" stroke-width="1.51"/><path d="M558,950L436,1098L613,1122Z" fill="#70ac68" stroke="#70ac68" stroke-width="1.51"/><path d="M563,634L454,802L616,837Z" fill="#83c778" stroke="#83c778" stroke-width="1.51"/><path d="M454,802L558,950L616,837Z" fill="#7cbc71" stroke="#7cbc71" stroke-width="1.51"/><path d="M534,262L385,410L617,422Z" fill="#b4e091" stroke="#b4e091" stroke-width="1.51"/><path d="M461,558L589,573L617,422Z" fill="#9ed788" stroke="#9ed788" stroke-width="1.51"/><path d="M385,410L461,558L617,422Z" fill="#a9dc8d" stroke="#a9dc8d" stroke-width="1.51"/><path d="M411,728L454,802L563,634Z" fill="#8ccc7d" stroke="#8ccc7d" stroke-width="1.51"/><path d="M461,-157L529,-42L588,-160Z" fill="#ddf2ac" stroke="#ddf2ac" stroke-width="1.51"/><path d="M461,558L563,634L589,573Z" fill="#97d384" stroke="#97d384" stroke-width="1.51"/><path d="M478,55L403,252L534,262Z" fill="#cbea9c" stroke="#cbea9c" stroke-width="1.51"/><path d="M388,978L436,1098L558,950Z" fill="#78b26c" stroke="#78b26c" stroke-width="1.51"/><path d="M436,1098L395,1344L572,1252Z" fill="#6da064" stroke="#6da064" stroke-width="1.51"/><path d="M403,252L385,410L534,262Z" fill="#c0e597" stroke="#c0e597" stroke-width="1.51"/><path d="M529,-42L478,55L542,54Z" fill="#d5eea3" stroke="#d5eea3" stroke-width="1.51"/><path d="M454,802L388,978L558,950Z" fill="#7eba70" stroke="#7eba70" stroke-width="1.51"/><path d="M461,558L411,728L563,634Z" fill="#95d183" stroke="#95d183" stroke-width="1.51"/><path d="M461,-157L412,-103L529,-42Z" fill="#e1f3ac" stroke="#e1f3ac" stroke-width="1.51"/><path d="M412,-103L478,55L529,-42Z" fill="#ddf1a7" stroke="#ddf1a7" stroke-width="1.51"/><path d="M318,1104L326,1344L395,1344Z" fill="#74a167" stroke="#74a167" stroke-width="1.51"/><path d="M318,1104L395,1344L436,1098Z" fill="#75a868" stroke="#75a868" stroke-width="1.51"/><path d="M299,794L388,978L454,802Z" fill="#88c277" stroke="#88c277" stroke-width="1.51"/><path d="M257,96L403,252L478,55Z" fill="#d7efa2" stroke="#d7efa2" stroke-width="1.51"/><path d="M412,-103L332,-92L478,55Z" fill="#e2f4ab" stroke="#e2f4ab" stroke-width="1.51"/><path d="M332,-92L257,96L478,55Z" fill="#e1f3a8" stroke="#e1f3a8" stroke-width="1.51"/><path d="M268,-185L412,-103L461,-157Z" fill="#e8f6b5" stroke="#e8f6b5" stroke-width="1.51"/><path d="M385,410L238,569L461,558Z" fill="#addd8f" stroke="#addd8f" stroke-width="1.51"/><path d="M247,675L411,728L461,558Z" fill="#9bd385" stroke="#9bd385" stroke-width="1.51"/><path d="M238,569L247,675L461,558Z" fill="#a5d88b" stroke="#a5d88b" stroke-width="1.51"/><path d="M411,728L299,794L454,802Z" fill="#8eca7c" stroke="#8eca7c" stroke-width="1.51"/><path d="M283,362L385,410L403,252Z" fill="#c2e698" stroke="#c2e698" stroke-width="1.51"/><path d="M257,96L235,201L403,252Z" fill="#d6efa2" stroke="#d6efa2" stroke-width="1.51"/><path d="M268,-185L332,-92L412,-103Z" fill="#eaf7b4" stroke="#eaf7b4" stroke-width="1.51"/><path d="M388,978L318,1104L436,1098Z" fill="#7cb16d" stroke="#7cb16d" stroke-width="1.51"/><path d="M299,794L240,964L388,978Z" fill="#89bf76" stroke="#89bf76" stroke-width="1.51"/><path d="M247,675L299,794L411,728Z" fill="#95d082" stroke="#95d082" stroke-width="1.51"/><path d="M318,1104L154,1184L326,1344Z" fill="#7aa76c" stroke="#7aa76c" stroke-width="1.51"/><path d="M283,362L238,569L385,410Z" fill="#b8e194" stroke="#b8e194" stroke-width="1.51"/><path d="M235,201L283,362L403,252Z" fill="#cceb9d" stroke="#cceb9d" stroke-width="1.51"/><path d="M240,964L318,1104L388,978Z" fill="#82b570" stroke="#82b570" stroke-width="1.51"/><path d="M154,1184L128,1277L326,1344Z" fill="#7ba36c" stroke="#7ba36c" stroke-width="1.51"/><path d="M181,36L257,96L332,-92Z" fill="#e7f6ad" stroke="#e7f6ad" stroke-width="1.51"/><path d="M268,-185L143,-49L332,-92Z" fill="#eef9b5" stroke="#eef9b5" stroke-width="1.51"/><path d="M143,-49L181,36L332,-92Z" fill="#ecf8b0" stroke="#ecf8b0" stroke-width="1.51"/><path d="M131,878L240,964L299,794Z" fill="#90c37b" stroke="#90c37b" stroke-width="1.51"/><path d="M235,201L152,245L283,362Z" fill="#d1eca1" stroke="#d1eca1" stroke-width="1.51"/><path d="M240,964L154,1184L318,1104Z" fill="#82b271" stroke="#82b271" stroke-width="1.51"/><path d="M98,1006L154,1184L240,964Z" fill="#88b675" stroke="#88b675" stroke-width="1.51"/><path d="M103,347L238,569L283,362Z" fill="#bfe599" stroke="#bfe599" stroke-width="1.51"/><path d="M247,675L131,878L299,794Z" fill="#96cd81" stroke="#96cd81" stroke-width="1.51"/><path d="M81,675L131,878L247,675Z" fill="#9dd286" stroke="#9dd286" stroke-width="1.51"/><path d="M152,245L103,347L283,362Z" fill="#ceeba0" stroke="#ceeba0" stroke-width="1.51"/><path d="M103,347L80,587L238,569Z" fill="#b9e298" stroke="#b9e298" stroke-width="1.51"/><path d="M96,-193L143,-49L268,-185Z" fill="#f3fbbc" stroke="#f3fbbc" stroke-width="1.51"/><path d="M238,569L80,587L247,675Z" fill="#aada8f" stroke="#aada8f" stroke-width="1.51"/><path d="M80,587L81,675L247,675Z" fill="#a9d98e" stroke="#a9d98e" stroke-width="1.51"/><path d="M181,36L235,201L257,96Z" fill="#e1f3a9" stroke="#e1f3a9" stroke-width="1.51"/><path d="M181,36L152,245L235,201Z" fill="#def2a7" stroke="#def2a7" stroke-width="1.51"/><path d="M131,878L98,1006L240,964Z" fill="#8ebe78" stroke="#8ebe78" stroke-width="1.51"/><path d="M-53,434L80,587L103,347Z" fill="#c4e69e" stroke="#c4e69e" stroke-width="1.51"/><path d="M81,675L32,858L131,878Z" fill="#9cce85" stroke="#9cce85" stroke-width="1.51"/><path d="M143,-49L-21,-7L181,36Z" fill="#f0f9b3" stroke="#f0f9b3" stroke-width="1.51"/><path d="M-21,-7L7,186L181,36Z" fill="#ecf8b1" stroke="#ecf8b1" stroke-width="1.51"/><path d="M7,186L152,245L181,36Z" fill="#e3f4aa" stroke="#e3f4aa" stroke-width="1.51"/><path d="M-21,-7L-62,53L7,186Z" fill="#edf8b7" stroke="#edf8b7" stroke-width="1.51"/><path d="M-48,1192L128,1277L154,1184Z" fill="#83aa72" stroke="#83aa72" stroke-width="1.51"/><path d="M98,1006L-48,1192L154,1184Z" fill="#88b275" stroke="#88b275" stroke-width="1.51"/><path d="M96,-193L-21,-7L143,-49Z" fill="#f7fbb9" stroke="#f7fbb9" stroke-width="1.51"/><path d="M7,186L103,347L152,245Z" fill="#d9f0a6" stroke="#d9f0a6" stroke-width="1.51"/><path d="M32,858L98,1006L131,878Z" fill="#94c37e" stroke="#94c37e" stroke-width="1.51"/><path d="M-53,434L-59,550L80,587Z" fill="#bce39e" stroke="#bce39e" stroke-width="1.51"/><path d="M-48,737L32,858L81,675Z" fill="#a1d38c" stroke="#a1d38c" stroke-width="1.51"/><path d="M-48,1192L-48,1266L128,1277Z" fill="#83a875" stroke="#83a875" stroke-width="1.51"/><path d="M-28,-225L-21,-7L96,-193Z" fill="#f9fcc3" stroke="#f9fcc3" stroke-width="1.51"/><path d="M32,858L-39,966L98,1006Z" fill="#93c07e" stroke="#93c07e" stroke-width="1.51"/><path d="M-39,966L-48,1192L98,1006Z" fill="#8db87c" stroke="#8db87c" stroke-width="1.51"/><path d="M7,186L-53,434L103,347Z" fill="#d4eda7" stroke="#d4eda7" stroke-width="1.51"/><path d="M-131,1033L-48,1192L-39,966Z" fill="#8eb881" stroke="#8eb881" stroke-width="1.51"/><path d="M-28,-225L-120,-164L-21,-7Z" fill="#fafdc7" stroke="#fafdc7" stroke-width="1.51"/><path d="M80,587L-59,550L81,675Z" fill="#b2dd96" stroke="#b2dd96" stroke-width="1.51"/><path d="M-59,550L-48,737L81,675Z" fill="#adda95" stroke="#adda95" stroke-width="1.51"/><path d="M-59,550L-130,595L-48,737Z" fill="#b1dc9c" stroke="#b1dc9c" stroke-width="1.51"/><path d="M-179,363L-53,434L7,186Z" fill="#d5eeae" stroke="#d5eeae" stroke-width="1.51"/><path d="M-203,200L-179,363L7,186Z" fill="#def2b5" stroke="#def2b5" stroke-width="1.51"/><path d="M-112,795L-39,966L32,858Z" fill="#9ac888" stroke="#9ac888" stroke-width="1.51"/><path d="M-48,737L-112,795L32,858Z" fill="#9fcf8e" stroke="#9fcf8e" stroke-width="1.51"/><path d="M-131,1033L-154,1142L-48,1192Z" fill="#8bb482" stroke="#8bb482" stroke-width="1.51"/><path d="M-62,53L-203,200L7,186Z" fill="#e8f6b7" stroke="#e8f6b7" stroke-width="1.51"/><path d="M-183,58L-203,200L-62,53Z" fill="#edf8bf" stroke="#edf8bf" stroke-width="1.51"/><path d="M-189,-39L-62,53L-21,-7Z" fill="#f3fbc0" stroke="#f3fbc0" stroke-width="1.51"/><path d="M-120,-164L-189,-39L-21,-7Z" fill="#f9fcc5" stroke="#f9fcc5" stroke-width="1.51"/><path d="M-130,595L-189,650L-48,737Z" fill="#adda9d" stroke="#adda9d" stroke-width="1.51"/><path d="M-112,795L-131,1033L-39,966Z" fill="#96c388" stroke="#96c388" stroke-width="1.51"/><path d="M-189,-39L-183,58L-62,53Z" fill="#f3fac3" stroke="#f3fac3" stroke-width="1.51"/><path d="M-130,595L-59,550L-53,434Z" fill="#bde3a3" stroke="#bde3a3" stroke-width="1.51"/><path d="M-179,363L-130,595L-53,434Z" fill="#c5e7aa" stroke="#c5e7aa" stroke-width="1.51"/><path d="M-48,1192L-154,1142L-48,1266Z" fill="#87ad7d" stroke="#87ad7d" stroke-width="1.51"/><path d="M-154,1142L-219,1259L-48,1266Z" fill="#87ab80" stroke="#87ab80" stroke-width="1.51"/><path d="M-189,650L-112,795L-48,737Z" fill="#a6d698" stroke="#a6d698" stroke-width="1.51"/><path d="M-179,363L-189,650L-130,595Z" fill="#bce2a9" stroke="#bce2a9" stroke-width="1.51"/><path d="M-189,650L-131,1033L-112,795Z" fill="#9fcd93" stroke="#9fcd93" stroke-width="1.51"/><path d="M-219,1259L-154,1142L-131,1033Z" fill="#8ab285" stroke="#8ab285" stroke-width="1.51"/><path d="M-189,650L-219,1259L-131,1033Z" fill="#94be8b" stroke="#94be8b" stroke-width="1.51"/><path d="M-203,200L-189,650L-179,363Z" fill="#cdeab2" stroke="#cdeab2" stroke-width="1.51"/><path d="M-189,-39L-203,200L-183,58Z" fill="#f0f9c3" stroke="#f0f9c3" stroke-width="1.51"/><path d="M-203,200L-219,1259L-189,650Z" fill="#aad8a0" stroke="#aad8a0" stroke-width="1.51"/></svg>